<svg xmlns="http://www.w3.org/2000/svg" xmlns:xlink="http://www.w3.org/1999/xlink" width="1366" zoomAndPan="magnify" viewBox="0 0 1024.5 576" height="768" preserveAspectRatio="xMidYMid meet" version="1.0"><defs><clipPath id="4f736ba6eb"><path d="M 0 0.140625 L 1024 0.140625 L 1024 575.859375 L 0 575.859375 Z M 0 0.140625 " clip-rule="nonzero"/></clipPath><clipPath id="8c5b3bd9a1"><path d="M 57.601562 288.140625 L 382.351562 288.140625 L 382.351562 518.390625 L 57.601562 518.390625 Z M 57.601562 288.140625 " clip-rule="nonzero"/></clipPath><clipPath id="8e0786a8ec"><path d="M 642.140625 58 L 966.890625 58 L 966.890625 288 L 642.140625 288 Z M 642.140625 58 " clip-rule="nonzero"/></clipPath></defs><g clip-path="url(#4f736ba6eb)"><path fill="#ffffff" d="M 0 0.140625 L 1024.5 0.140625 L 1024.5 583.640625 L 0 583.640625 Z M 0 0.140625 " fill-opacity="1" fill-rule="nonzero"/><path fill="#ffffff" d="M 0 0.140625 L 1024.5 0.140625 L 1024.5 576.140625 L 0 576.140625 Z M 0 0.140625 " fill-opacity="1" fill-rule="nonzero"/><path fill="#ffffff" d="M 0 0.140625 L 1024.5 0.140625 L 1024.5 576.140625 L 0 576.140625 Z M 0 0.140625 " fill-opacity="1" fill-rule="nonzero"/></g><g clip-path="url(#8c5b3bd9a1)"><path fill="#fabbe2" d="M 57.964844 289.410156 C 66.054688 313.886719 78.335938 336.851562 94.078125 357.234375 C 109.824219 377.566406 128.976562 395.269531 150.617188 409.164062 C 174.792969 424.671875 201.699219 435.546875 229.332031 443.101562 C 243.808594 447.054688 258.480469 449.882812 273.246094 452.613281 C 288.210938 455.390625 303.222656 458.171875 317.699219 462.949219 C 341.679688 470.800781 365.609375 485.28125 377.0625 508.6875 C 378.476562 511.5625 379.597656 514.488281 380.574219 517.511719 C 380.867188 518.390625 382.277344 518.050781 381.988281 517.121094 C 374.625 493.960938 354.886719 477.285156 333.34375 467.433594 C 306.246094 455.050781 276.027344 452.464844 247.21875 446.027344 C 218.804688 439.691406 190.878906 430.277344 165.289062 416.234375 C 141.601562 403.214844 120.351562 386.101562 102.707031 365.574219 C 85.550781 345.628906 71.804688 322.710938 62.496094 298.039062 C 61.375 295.015625 60.304688 291.992188 59.28125 288.96875 C 59.085938 288.140625 57.671875 288.480469 57.964844 289.410156 Z M 57.964844 289.410156 " fill-opacity="1" fill-rule="nonzero"/></g><path fill="#fabbe2" d="M 112.066406 330.757812 C 130.34375 376.398438 175.671875 402.730469 221.289062 414.578125 C 235.914062 418.382812 250.875 420.917969 265.839844 422.867188 C 266.765625 422.964844 266.765625 421.503906 265.839844 421.40625 C 217.441406 415.113281 166.800781 400.972656 133.558594 362.84375 C 125.175781 353.1875 118.253906 342.265625 113.476562 330.367188 C 113.136719 329.488281 111.722656 329.878906 112.066406 330.757812 Z M 112.066406 330.757812 " fill-opacity="1" fill-rule="nonzero"/><path fill="#fabbe2" d="M 148.082031 347.238281 C 154.808594 359.136719 164.507812 369.035156 176.253906 376.007812 C 177.082031 376.496094 177.816406 375.226562 176.988281 374.738281 C 165.433594 367.914062 155.929688 358.210938 149.351562 346.507812 C 148.914062 345.679688 147.644531 346.410156 148.082031 347.238281 Z M 148.082031 347.238281 " fill-opacity="1" fill-rule="nonzero"/><g clip-path="url(#8e0786a8ec)"><path fill="#fabbe2" d="M 966.527344 286.863281 C 958.4375 262.386719 946.15625 239.417969 930.410156 219.035156 C 914.667969 198.703125 895.515625 181.003906 873.875 167.105469 C 849.699219 151.601562 822.792969 140.726562 795.160156 133.167969 C 780.683594 129.21875 766.011719 126.390625 751.242188 123.660156 C 736.28125 120.878906 721.269531 118.101562 706.792969 113.324219 C 682.8125 105.472656 658.882812 90.988281 647.429688 67.585938 C 646.015625 64.707031 644.894531 61.78125 643.917969 58.757812 C 643.625 57.882812 642.210938 58.222656 642.503906 59.148438 C 649.863281 82.308594 669.605469 98.988281 691.148438 108.835938 C 718.246094 121.222656 748.464844 123.804688 777.269531 130.242188 C 805.6875 136.582031 833.613281 145.992188 859.203125 160.035156 C 882.890625 173.054688 904.140625 190.171875 921.785156 210.699219 C 938.941406 230.640625 952.6875 253.558594 961.996094 278.234375 C 963.117188 281.253906 964.1875 284.277344 965.210938 287.300781 C 965.40625 288.132812 966.820312 287.789062 966.527344 286.863281 Z M 966.527344 286.863281 " fill-opacity="1" fill-rule="nonzero"/></g><path fill="#fabbe2" d="M 912.425781 245.515625 C 894.148438 199.875 848.820312 173.542969 803.199219 161.695312 C 788.578125 157.890625 773.617188 155.355469 758.652344 153.402344 C 757.726562 153.304688 757.726562 154.769531 758.652344 154.867188 C 807.050781 161.15625 857.691406 175.296875 890.933594 213.429688 C 899.316406 223.082031 906.238281 234.007812 911.011719 245.902344 C 911.355469 246.78125 912.769531 246.390625 912.425781 245.515625 Z M 912.425781 245.515625 " fill-opacity="1" fill-rule="nonzero"/><path fill="#fabbe2" d="M 876.40625 229.03125 C 869.683594 217.136719 859.984375 207.238281 848.234375 200.261719 C 847.40625 199.777344 846.675781 201.042969 847.503906 201.53125 C 859.054688 208.359375 868.5625 218.0625 875.140625 229.765625 C 875.578125 230.59375 876.847656 229.863281 876.40625 229.03125 Z M 876.40625 229.03125 " fill-opacity="1" fill-rule="nonzero"/></svg>